<svg width="29" height="28" viewBox="0 0 29 28" fill="none" xmlns="http://www.w3.org/2000/svg">
<path fill-rule="evenodd" clip-rule="evenodd" d="M14.45 0C6.71501 0 0.450014 6.42362 0.450014 14.3545C0.448426 17.3679 1.37235 20.3053 3.09072 22.7499C4.80908 25.1946 7.23462 27.0224 10.0232 27.974C10.7232 28.0989 10.985 27.6682 10.985 27.2907C10.985 26.9505 10.9668 25.8208 10.9668 24.6179C7.45001 25.2825 6.54001 23.7394 6.26001 22.9313C6.10181 22.5178 5.42001 21.2446 4.82501 20.903C4.33501 20.6345 3.63501 19.9699 4.80681 19.9527C5.91001 19.934 6.69681 20.9934 6.96001 21.424C8.22001 23.5944 10.2332 22.9844 11.0368 22.6083C11.16 21.6752 11.5268 21.048 11.93 20.6891C8.81501 20.3302 5.56001 19.0914 5.56001 13.6009C5.56001 12.0391 6.10181 10.7486 6.99501 9.74238C6.85501 9.38351 6.36501 7.91218 7.13501 5.93844C7.13501 5.93844 8.30681 5.56236 10.985 7.41121C12.1247 7.08689 13.3022 6.92365 14.485 6.92603C15.675 6.92603 16.865 7.0868 17.985 7.40978C20.6618 5.54369 21.835 5.93988 21.835 5.93988C22.605 7.91362 22.115 9.38495 21.975 9.74381C22.8668 10.7486 23.41 12.0219 23.41 13.6009C23.41 19.1101 20.1382 20.3302 17.0232 20.6891C17.53 21.1369 17.9682 21.9982 17.9682 23.3447C17.9682 25.2639 17.95 26.807 17.95 27.2921C17.95 27.6682 18.2132 28.1161 18.9132 27.9725C21.6923 27.0105 24.1071 25.1792 25.8179 22.7363C27.5287 20.2934 28.4492 17.3619 28.45 14.3545C28.45 6.42362 22.185 0 14.45 0Z" fill="#2D2424"/>
</svg>
