<svg width="31" height="30" viewBox="0 0 31 30" fill="none" xmlns="http://www.w3.org/2000/svg">
<path d="M22.65 1H8.64999C4.784 1 1.64999 4.13401 1.64999 8V22C1.64999 25.866 4.784 29 8.64999 29H22.65C26.516 29 29.65 25.866 29.65 22V8C29.65 4.13401 26.516 1 22.65 1Z" stroke="#2D2424" stroke-width="2" stroke-linecap="round" stroke-linejoin="round"/>
<path d="M21.25 14.118C21.4228 15.2831 21.2238 16.4731 20.6813 17.5186C20.1388 18.5641 19.2804 19.412 18.2283 19.9415C17.1761 20.4711 15.9838 20.6554 14.8209 20.4683C13.658 20.2812 12.5837 19.7321 11.7508 18.8992C10.9179 18.0663 10.3688 16.992 10.1817 15.8291C9.99456 14.6662 10.1789 13.4738 10.7085 12.4217C11.238 11.3696 12.0859 10.5112 13.1314 9.96873C14.1769 9.42623 15.3669 9.22722 16.532 9.39999C17.7205 9.57623 18.8208 10.13 19.6704 10.9796C20.52 11.8292 21.0738 12.9295 21.25 14.118Z" stroke="#2D2424" stroke-width="2" stroke-linecap="round" stroke-linejoin="round"/>
<path d="M23.35 7.30002H23.364" stroke="#2D2424" stroke-width="2" stroke-linecap="round" stroke-linejoin="round"/>
</svg>
