<svg width="29" height="28" viewBox="0 0 29 28" fill="none" xmlns="http://www.w3.org/2000/svg">
<path fill-rule="evenodd" clip-rule="evenodd" d="M4.45001 7H13.2V10.5H4.45001V24.5H18.45V15.75H21.95V24.5C21.95 25.4283 21.5813 26.3185 20.9249 26.9749C20.2685 27.6313 19.3783 28 18.45 28H4.45001C3.52175 28 2.63152 27.6313 1.97514 26.9749C1.31876 26.3185 0.950012 25.4283 0.950012 24.5V10.5C0.950012 9.57174 1.31876 8.6815 1.97514 8.02513C2.63152 7.36875 3.52175 7 4.45001 7ZM23.0245 3.5H14.95V0H28.95V14H25.45V6.0235L16.112 15.3615L13.6375 12.887L23.0245 3.5Z" fill="#2D2424"/>
</svg>
